<?xml version="1.0" encoding="utf-8"?>
<!-- Generator: Adobe Illustrator 27.9.0, SVG Export Plug-In . SVG Version: 6.00 Build 0)  -->
<svg version="1.1" id="Layer_1" xmlns="http://www.w3.org/2000/svg" xmlns:xlink="http://www.w3.org/1999/xlink" x="0px" y="0px"
	 viewBox="0 0 61.9 45.6" style="enable-background:new 0 0 61.9 45.6;" xml:space="preserve">
<style type="text/css">
	.st0{fill:none;stroke:#000000;stroke-width:2;stroke-linecap:round;stroke-linejoin:round;}
</style>
<g>
	<g transform="translate(-240.000000, -890.000000)">
		<g transform="translate(241.000000, 891.000000)">
			<path class="st0" d="M51,21.8c0,11.6-9.4,21-21,21s-21-9.4-21-21s9.4-21,21-21S51,10.2,51,21.8L51,21.8z"/>
			<path class="st0" d="M9.4,42.3C-1.9,31-1.9,12.6,9.4,1.3"/>
			<path class="st0" d="M50.5,1.3c11.3,11.3,11.3,29.7,0,41"/>
			<path class="st0" d="M26,11.8v22"/>
			<path class="st0" d="M32,23.8h-6v-12h6c3.3,0,6,2.7,6,6S35.3,23.8,32,23.8L32,23.8z"/>
		</g>
	</g>
</g>
</svg>
