<?xml version="1.0" encoding="utf-8"?>
<!-- Generator: Adobe Illustrator 27.9.0, SVG Export Plug-In . SVG Version: 6.00 Build 0)  -->
<svg version="1.1" id="Layer_1" xmlns="http://www.w3.org/2000/svg" xmlns:xlink="http://www.w3.org/1999/xlink" x="0px" y="0px"
	 viewBox="0 0 128 78.9" style="enable-background:new 0 0 128 78.9;" xml:space="preserve">
<path d="M55,2.2H45c-1.1,0-2,0.9-2,2s0.9,2,2,2h5.2l-6.6,6.6c-0.7,0.8-0.6,2.1,0.2,2.8c0.7,0.6,1.9,0.6,2.6,0L53,9v5.2
	c0,1.1,0.9,2,2,2s2-0.9,2-2v-10C57,3.1,56.1,2.2,55,2.2z"/>
<path d="M125.5,58.2c0-1.1-0.2-3.9-1.6-5.3c-3.6-3.5-23.9-8.7-31.3-10.8c-1.9-1-15.1-8.3-19.3-10.1c-2.9-0.9-5.8-1.5-8.8-1.7
	l-31.7-15c-1-0.5-2.2,0-2.6,1c-0.4,1,0,2.1,0.9,2.6l22.2,10.5c-9.9-0.4-20.8-0.1-30.6,1.9c-5.7,1.1-13.5,8-15.8,10.3
	c-2.6,2.6-2.2,7.4-2.9,9c-2.1,4.1-1.7,5.8-1.9,8.9s0.1,5.8,5.5,8c1.9,0.7,4,1.1,6,1.3c2,6,8.5,9.3,14.5,7.3c3-1,5.5-3.2,6.9-6.1
	l58,1.7c3.6,5.2,10.8,6.6,16,3c1.1-0.8,2.1-1.7,2.9-2.8c3.4-0.1,6.7-0.5,10-1.2c0.4-0.1,0.7-0.3,1-0.5c1-1.1,1.8-2.3,2.4-3.6
	C126.5,64.1,125.8,59.5,125.5,58.2z M24.5,72.7c-4.2,0-7.5-3.4-7.6-7.5c0-4.2,3.4-7.5,7.5-7.6s7.5,3.4,7.6,7.5c0,0,0,0,0,0.1
	C32.1,69.3,28.7,72.7,24.5,72.7L24.5,72.7z M102.5,72.7c-4.2,0-7.5-3.4-7.6-7.5c0-4.2,3.4-7.5,7.5-7.6s7.5,3.4,7.6,7.5
	c0,0,0,0,0,0.1C110.1,69.3,106.7,72.7,102.5,72.7L102.5,72.7z M121.8,64.7c-0.4,0.8-0.8,1.5-1.3,2.2c-2.2,0.4-4.4,0.7-6.7,0.9
	c1.4-6.2-2.4-12.4-8.6-13.8c-6.2-1.4-12.4,2.4-13.8,8.6c-0.4,1.7-0.4,3.4,0,5.1L36,66c0.4-6.4-4.5-11.8-10.8-12.2S13.4,58.3,13,64.6
	c-1.3-0.2-2.7-0.5-3.9-0.9c-3.2-1.3-3.2-1.9-3-4c0.2-3-0.2-4,1.5-7.4c1.2-2.3,0.8-6.5,2.2-7.9c2.5-2.5,9.5-8.3,13.8-9.2
	c18-3.6,44-1.4,48.3,0.5s19,9.9,19.2,10c0.1,0.1,0.3,0.1,0.4,0.2c7.1,2,26.5,7,29.7,9.8c0.4,0.6,0.5,2.9,0.5,3.1
	C122,61,122.2,63.8,121.8,64.7L121.8,64.7z"/>
</svg>
